<svg width="25" height="24" viewBox="0 0 25 24" fill="none" xmlns="http://www.w3.org/2000/svg">
<g id="Group">
<path id="Vector" d="M3.49829 13.0035H9.49829V11.0035H3.49829V1.84952C3.49831 1.76264 3.52096 1.67726 3.56402 1.60179C3.60709 1.52633 3.66907 1.46339 3.74387 1.41918C3.81866 1.37497 3.90369 1.35101 3.99056 1.34967C4.07744 1.34833 4.16316 1.36965 4.23929 1.41152L22.7013 11.5655C22.7797 11.6087 22.8451 11.6721 22.8906 11.7491C22.9361 11.8262 22.9601 11.914 22.9601 12.0035C22.9601 12.093 22.9361 12.1809 22.8906 12.2579C22.8451 12.335 22.7797 12.3984 22.7013 12.4415L4.23929 22.5955C4.16316 22.6374 4.07744 22.6587 3.99056 22.6574C3.90369 22.656 3.81866 22.6321 3.74387 22.5879C3.66907 22.5437 3.60709 22.4807 3.56402 22.4053C3.52096 22.3298 3.49831 22.2444 3.49829 22.1575V13.0035Z" fill="white"/>
</g>
</svg>
