<svg width="1414" height="881" viewBox="0 0 1414 881" fill="none" xmlns="http://www.w3.org/2000/svg">
<path d="M0 14.74C0 14.74 258.251 0 675.578 0C1092.9 0 1414 14.74 1414 14.74V881C1414 881 1356.07 881 924.992 881C493.918 881 0 881 0 881V14.74Z" fill="#EFF5FB"/>
<path d="M0 14.74C0 14.74 258.251 0 675.578 0C1092.9 0 1414 14.74 1414 14.74V881C1414 881 1356.07 881 924.992 881C493.918 881 0 881 0 881V14.74Z" fill="url(#paint0_linear_4492_2127)"/>
<defs>
<linearGradient id="paint0_linear_4492_2127" x1="707" y1="369.573" x2="707" y2="619.081" gradientUnits="userSpaceOnUse">
<stop stop-color="white" stop-opacity="0"/>
<stop offset="1" stop-color="white"/>
</linearGradient>
</defs>
</svg>
